# xmcd
# 
# Track frame offsets:
#     150
#     10842
#     20994
#     31506
#     46314
#     55015
#     69375
#     81288
#     93015
#     103676
#     117547
#     131596
#     144376
#     154989
#     171644
#     181867
# 
# Disc length: 2618
# 
# Revision: 2
# Processed by: cddbd v1.5.2PL0 Copyright (c) Steve Scherf et al.
# Submitted via: fre:ac v1.0.31
# 
DISCID=d20a3810
DTITLE=Various Artist - MTV Unplugged [CD 2)
DYEAR=2019
DGENRE=Blues
TTITLE0=Max Raabe and Palast Orchester - Ich bin dein Mann
TTITLE1=Max Raabe and Palast Orchester mit Herbert Grönemeyer - Mambo
TTITLE2=Max Raabe and Palast Orchester - Avalon
TTITLE3=Max Raabe and Palast Orchester - Für Frauen ist das kein Problem
TTITLE4=Max Raabe and Palast Orchester - This Is The Night
TTITLE5=Max Raabe and Palast Orchester - Ich schlaf am besten neben dir
TTITLE6=Max Raabe and Palast Orchester - Wochenend und Sonnenschein
TTITLE7=Max Raabe and Palast Orchester mit Mr. Lordi - Just A Gigolo
TTITLE8=Max Raabe and Palast Orchester - Rosa, reizende Rosa
TTITLE9=Max Raabe and Palast Orchester mit Namika - Cote d'Azur
TTITLE10=Max Raabe and Palast Orchester - Alabama Song
TTITLE11=Max Raabe and Palast Orchester - Sweet And Lovely
TTITLE12=Max Raabe and Palast Orchester - Chinatown, My Chinatown
TTITLE13=Max Raabe and Palast Orchester - Du bist nicht die Erste
TTITLE14=Max Raabe and Palast Orchester - Mein kleiner grüner Kaktus
TTITLE15=Max Raabe and Palast Orchester - Donna Maria (Ave Maria Non Morro)
EXTD=
EXTT0=
EXTT1=
EXTT2=
EXTT3=
EXTT4=
EXTT5=
EXTT6=
EXTT7=
EXTT8=
EXTT9=
EXTT10=
EXTT11=
EXTT12=
EXTT13=
EXTT14=
EXTT15=
PLAYORDER=
